# xmcd
#
# Track frame offsets:
#	150
#	16710
#	30040
#
# Disc length: 584 seconds
#
# Revision: 0
# Processed by: cddbd v1.5.2PL0 Copyright (c) Steve Scherf et al.
# Submitted via: audiograbber 1.83.01
#
DISCID=0c024603
DTITLE=Mo Blues - Mr Jones CDS
DYEAR=1995
DGENRE=Blues
TTITLE0=Mr Jones
TTITLE1=Has She Been Here
TTITLE2=Country Girl
EXTD=
EXTT0=
EXTT1=
EXTT2=
PLAYORDER=
